<?xml version="1.0" encoding="utf-8"?>
<svg version="1.1" id="Layer_1" xmlns="http://www.w3.org/2000/svg" xmlns:xlink="http://www.w3.org/1999/xlink" x="0px" y="0px"
	 viewBox="0 0 1309.115 1631.411" enable-background="new 0 0 1309.115 1631.411" xml:space="preserve">
<g>
	<path d="M1229.98,840.401c-55.848-108.764-78.529-120.339-65.686-157.736c3.885-11.311,9.582-5.145,18.904-17.381
		c9.064-11.899,23.518-38.499,24.018-41.37c2.672-15.35,9.935-47.054-0.115-64.604c-6.316-11.028-24.026-44.153-26.478-59.975
		c-12.677-81.78-30.735-152.479-93.696-203.692c-5.083-4.134-8.774-7.253-4.255-10.216c22.632-14.839,32.505-14.531,32.48-18.602
		c-0.025-3.962-7.866-2.698-10.239-6.648c1.845-2.888,5.001-3.808,7.771-4.895c9.211-3.612,16.549-9.334,21.84-17.707
		c4.887-7.731,9.065-8.021,2.547-14.266c-25.074-24.019-21.242-39.764-48.754-58.27c-10.609-7.136-9.594-6.844-63.124-24.566
		c-14.457-4.786-17.996-13.993-27.922-18.352c-59.504-26.135-49.982-6.079-92.096-28.771
		C667.44-34.746,240.244,3.206,221.319,151.833c-0.473,3.711-2.197,5.194-5.547,6.309C31.194,219.581-40.983,549.328,55.262,770.482
		c46.303,106.396,69.247,166.455,78.392,179.872c66.061,96.917,74.755,221.921,27.429,325.231
		c-49.813,108.738-129.43,137.787-143.237,147.576v192.545h786.927c-31.993-99.921,84.265-224.707,238.816-199.277
		c40.892,6.728,54.462,6.08,76.482-3.652c49.416-21.84,64.449-85.985,30.334-128.886c-7.743-9.737-12.577-22.739-11.296-26.43
		c4-11.521,8.117-23.152,17.709-31.332c11.459-9.772,8.653-15.226,11.19-22.986c4.008-12.26-11.39-34.916-15.267-42.016
		c-6.103-11.176-15.241-6.535-20.546-12.291c2.314-3.682,13.445-0.734,27.229-4.54c14.68-4.053,21.319-17.04,16.007-31.159
		c-3.026-8.043-7.108-13.129-8.596-21.946c-4.563-27.036-8.882-79.194,17.707-73.075c11.228,2.584,22.735,2.899,33.993,5.015
		c15.101,2.838,39.64-1.916,56.191-18.658c7.104-7.186,10.832-16.201,15.939-24.497c5.04-8.185,4.517-17.414,5.806-26.313
		C1298.277,941.208,1237.881,855.788,1229.98,840.401z"/>
</g>
</svg>
