<?xml version="1.0" standalone="no"?>
<!DOCTYPE svg PUBLIC "-//W3C//DTD SVG 20010904//EN"
 "http://www.w3.org/TR/2001/REC-SVG-20010904/DTD/svg10.dtd">
<svg version="1.0" xmlns="http://www.w3.org/2000/svg"
 width="368.000000pt" height="612.000000pt" viewBox="0 0 368.000000 612.000000"
 preserveAspectRatio="xMidYMid meet">
<metadata>
Created by potrace 1.16, written by Peter Selinger 2001-2019
</metadata>
<g transform="translate(0.000000,612.000000) scale(0.100000,-0.100000)"
fill="#000000" stroke="none">
<path d="M1680 6100 c-240 -34 -457 -118 -642 -250 -331 -236 -537 -600 -574
-1012 -4 -43 -11 -78 -15 -78 -5 0 -9 -17 -9 -38 0 -20 -7 -69 -15 -107 -8
-39 -15 -104 -15 -145 0 -41 -4 -92 -9 -113 -21 -87 -180 -281 -293 -357 -81
-54 -63 -51 33 5 112 66 192 138 231 209 33 59 18 5 -18 -67 -46 -91 -85 -148
-149 -217 l-50 -54 60 51 c33 28 73 65 89 82 16 17 33 28 37 25 4 -2 11 1 15
7 4 8 3 9 -4 5 -18 -11 -14 3 8 31 11 14 20 21 20 15 0 -6 -5 -14 -11 -17 -6
-4 -8 -13 -5 -20 10 -28 -130 -198 -219 -264 -24 -18 -25 -20 -5 -10 37 18
111 68 143 97 37 35 34 17 -7 -46 -48 -71 -36 -65 20 11 60 81 61 82 29 17
-15 -30 -47 -79 -72 -107 -24 -29 -41 -53 -38 -53 4 0 2 -8 -5 -17 -19 -27 50
47 90 96 19 23 47 49 62 57 l27 14 -21 -48 c-11 -26 -34 -67 -50 -92 l-29 -45
32 35 32 35 -32 -58 c-37 -68 -24 -68 15 -1 14 24 27 44 29 44 9 0 -41 -100
-76 -155 -35 -54 -36 -56 -8 -25 17 19 51 64 75 100 24 36 44 60 44 55 0 -6
-7 -20 -15 -31 -8 -12 -12 -24 -9 -27 3 -3 -6 -28 -20 -56 -15 -28 -23 -51
-19 -51 4 0 -1 -6 -12 -13 -11 -9 -14 -16 -8 -20 6 -4 33 28 61 70 39 59 53
73 58 60 9 -24 -22 -144 -57 -219 -34 -74 -11 -49 34 37 l32 60 3 -79 c2 -44
-1 -82 -5 -85 -4 -3 -14 -18 -22 -33 -12 -23 -12 -32 -1 -52 10 -21 11 -31 0
-56 -11 -25 -10 -35 0 -56 11 -20 11 -28 0 -48 -10 -20 -10 -31 0 -55 7 -17
16 -31 21 -31 17 0 10 -87 -7 -94 -12 -5 -14 -18 -9 -71 6 -73 -1 -92 -48
-136 -18 -16 -26 -29 -18 -29 8 0 -1 -18 -23 -45 -21 -25 -35 -49 -31 -55 3
-5 -2 -21 -11 -34 -14 -22 -64 -193 -64 -220 0 -6 19 8 41 29 46 44 43 32 -7
-30 -38 -48 -54 -126 -54 -265 l0 -92 32 24 c67 51 81 49 25 -2 l-58 -53 6
-56 c3 -31 9 -69 12 -85 l5 -28 45 48 c41 45 31 24 -16 -36 -28 -34 -26 -52
14 -136 43 -88 136 -194 171 -194 30 0 59 54 76 144 l13 66 55 -54 c65 -64
145 -116 177 -116 13 0 28 9 35 23 16 29 13 178 -6 282 -15 80 -16 80 -83 144
-70 66 -69 73 4 14 23 -18 43 -33 46 -33 3 0 -5 48 -18 106 l-22 107 -59 54
-59 55 53 -36 53 -37 -7 48 c-3 26 -18 84 -31 128 -20 64 -34 88 -66 119 -22
21 -31 34 -19 27 31 -17 32 -15 17 37 -9 29 -28 59 -49 80 -38 34 -38 39 -3
21 22 -12 22 -12 4 9 -11 11 -16 25 -13 30 3 5 -3 17 -14 27 -38 34 -44 81
-25 178 7 33 5 37 -14 37 -19 0 -21 6 -21 50 0 28 4 50 9 50 5 0 14 13 21 30
10 24 10 36 0 61 -10 22 -10 33 -1 42 14 14 14 50 -1 65 -9 9 -9 18 0 37 17
36 15 53 -8 86 -18 24 -20 41 -18 116 l3 88 17 -30 c24 -41 22 -27 -3 29 -29
67 -18 79 14 15 44 -86 73 -116 38 -39 -17 36 -33 79 -36 95 -4 17 5 4 18 -28
26 -60 104 -197 113 -197 3 0 -7 19 -21 43 -29 50 -69 161 -55 152 14 -9 11
16 -5 45 -26 45 -16 44 16 -1 47 -66 54 -69 26 -14 -28 57 -51 124 -45 131 2
2 26 -25 52 -61 26 -36 53 -68 59 -72 7 -3 5 2 -4 13 -9 10 -29 42 -45 69
l-28 50 40 -36 c53 -47 117 -90 182 -123 63 -32 69 -28 9 7 -87 51 -189 159
-257 272 -20 31 -9 23 50 -38 40 -43 88 -88 104 -99 27 -19 26 -16 -10 23 -22
24 -51 60 -64 79 l-23 35 34 -30 c71 -64 82 -68 31 -13 -28 31 -52 59 -52 62
0 3 27 -15 59 -42 54 -42 181 -120 181 -109 0 2 -25 21 -55 41 -62 41 -71 54
-23 31 18 -8 24 -10 14 -3 -94 62 -209 184 -254 270 l-23 43 28 -35 c47 -58
135 -150 145 -150 6 0 -8 21 -29 48 -22 26 -50 63 -63 82 l-24 35 28 -25 c26
-23 110 -138 111 -151 0 -3 8 -13 17 -22 9 -10 34 -39 55 -65 21 -25 50 -57
66 -70 15 -13 24 -29 20 -34 -3 -6 -2 -9 3 -6 5 4 45 -23 89 -58 44 -35 84
-64 88 -64 4 0 7 -6 6 -12 -1 -7 1 -21 6 -31 8 -20 3 -59 -15 -103 -8 -19 -10
-39 -5 -50 10 -24 10 -34 0 -58 -5 -11 -3 -33 4 -53 10 -26 10 -38 2 -46 -14
-14 -14 -43 1 -67 10 -15 9 -32 -1 -82 -7 -35 -17 -116 -21 -180 l-8 -117 -55
-83 c-85 -130 -177 -222 -282 -282 -16 -10 -21 -14 -10 -11 42 13 173 96 228
145 31 29 69 72 83 96 49 83 38 42 -17 -68 -44 -87 -77 -134 -146 -203 -32
-33 -44 -50 -28 -38 40 29 145 130 179 173 16 19 25 29 21 22 -4 -7 -8 -23 -9
-35 -5 -43 -110 -172 -185 -229 -78 -58 -82 -63 -34 -39 23 11 71 43 107 71
68 50 71 46 22 -25 -15 -22 -16 -27 -3 -16 9 7 26 29 38 48 12 19 23 32 26 29
10 -10 -43 -94 -96 -150 -31 -33 -49 -55 -40 -48 9 6 18 9 21 6 3 -2 31 25 63
61 32 36 64 65 72 65 8 0 12 4 9 9 -3 5 1 11 9 15 8 3 15 4 15 2 0 -13 -37
-89 -66 -135 l-35 -56 31 35 31 35 -17 -35 c-9 -19 -25 -47 -36 -62 -11 -16
-17 -28 -14 -28 3 0 22 25 42 55 20 30 38 55 40 55 8 0 -33 -83 -73 -145 -35
-55 -37 -63 -13 -35 17 19 49 63 72 97 23 34 44 60 47 58 2 -3 -1 -11 -7 -17
-7 -7 -12 -21 -12 -33 0 -11 -14 -44 -30 -74 -34 -61 -34 -61 -20 -61 6 0 32
33 58 72 43 67 47 71 50 46 4 -36 -23 -139 -54 -208 -32 -71 -14 -53 31 31 21
39 35 56 35 43 0 -11 -7 -29 -15 -40 -18 -23 -19 -66 -3 -82 10 -10 10 -17 0
-32 -15 -24 -15 -53 -1 -67 8 -8 8 -20 -2 -46 -7 -20 -9 -42 -4 -53 5 -11 7
-22 7 -27 -1 -4 3 -7 8 -7 6 0 10 -27 10 -60 0 -48 -3 -60 -16 -60 -13 0 -15
-10 -10 -68 6 -76 -10 -116 -59 -148 -19 -12 -23 -19 -14 -25 9 -5 4 -17 -19
-44 -41 -46 -41 -57 0 -19 34 31 31 24 -20 -41 -28 -36 -50 -100 -77 -220 l-7
-30 29 26 c59 53 65 52 20 -6 -58 -75 -72 -147 -68 -337 l1 -38 52 36 53 37
-54 -51 -53 -51 7 -53 c3 -29 9 -66 12 -82 l5 -28 41 38 40 39 -37 -50 c-44
-58 -43 -73 5 -171 36 -72 132 -184 158 -184 36 0 72 68 86 164 l7 46 63 -58
c76 -69 157 -116 185 -107 38 12 44 104 20 276 l-13 94 -66 70 c-58 61 -61 65
-21 34 59 -47 71 -53 66 -37 -2 7 -12 54 -22 103 -17 89 -18 91 -76 148 -60
60 -60 64 0 20 18 -14 36 -23 39 -20 8 9 -26 156 -49 210 -11 26 -36 61 -55
77 -35 31 -36 38 -2 20 23 -13 23 -15 3 46 -10 30 -31 62 -53 83 -33 31 -34
32 -6 16 29 -18 30 -18 14 1 -30 36 -34 48 -13 40 12 -5 7 5 -16 29 -30 31
-35 42 -34 83 1 26 5 66 9 89 6 36 5 43 -9 43 -13 0 -16 11 -16 60 0 36 4 60
11 60 5 0 7 5 4 10 -3 5 -2 10 4 10 18 0 22 39 8 67 -13 24 -13 30 1 51 14 21
14 27 0 55 -13 28 -14 35 -1 54 12 18 12 26 2 45 -7 13 -12 26 -11 30 1 5 -2
8 -7 8 -5 0 -9 30 -9 66 l0 67 34 -64 c46 -86 62 -98 25 -19 -16 36 -32 79
-36 95 -5 28 -4 27 8 -5 23 -58 73 -153 95 -180 15 -18 12 -7 -10 40 -17 35
-32 82 -33 105 -1 22 -7 50 -13 62 -24 44 -11 36 23 -15 20 -28 37 -52 39 -52
2 0 -12 36 -31 80 -19 44 -33 85 -31 91 2 5 25 -19 51 -55 47 -63 79 -95 39
-38 -11 15 -27 43 -37 62 l-17 35 36 -34 c26 -26 39 -32 47 -24 8 8 -2 27 -37
71 -89 110 -94 134 -10 49 43 -42 87 -82 98 -88 11 -6 1 8 -21 30 -22 22 -47
55 -57 73 l-16 33 38 -36 c69 -63 81 -65 22 -3 -65 67 -78 94 -20 43 20 -19
62 -50 92 -69 30 -19 57 -38 58 -42 5 -10 29 -10 34 0 2 4 32 26 68 47 36 22
84 57 108 78 23 22 42 36 42 32 0 -13 -49 -76 -99 -127 -68 -72 -39 -58 42 20
l71 67 -48 -67 c-26 -38 -43 -68 -38 -68 10 0 64 56 116 120 l28 35 -22 -40
c-13 -22 -41 -64 -62 -93 -21 -29 -36 -57 -33 -62 4 -6 -1 -13 -9 -16 -9 -3
-16 -16 -16 -27 0 -16 3 -18 12 -9 24 24 31 12 8 -13 -26 -27 -17 -35 11 -9
13 11 16 25 12 50 -7 44 12 45 30 2 l14 -33 7 32 c8 33 30 44 39 21 4 -10 6
-10 6 0 1 6 6 12 11 12 6 0 10 -27 10 -60 0 -33 -4 -60 -10 -60 -5 0 -10 21
-11 48 l0 47 -19 -40 c-10 -22 -23 -52 -29 -67 -6 -17 -18 -28 -29 -28 -10 0
-28 -14 -40 -30 l-23 -30 26 0 c14 0 25 4 25 9 0 5 7 12 16 15 12 4 15 2 10
-9 -9 -24 6 -18 30 12 l21 27 -5 -32 c-4 -31 -3 -32 26 -26 27 5 30 3 34 -25
4 -29 3 -31 -28 -31 -28 0 -34 -5 -49 -42 -9 -23 -25 -54 -36 -70 -32 -45 -14
-32 21 15 37 49 34 30 -11 -73 -16 -36 -22 -56 -13 -45 24 31 94 172 95 192 0
11 2 13 6 5 5 -14 -28 -102 -60 -162 l-19 -35 20 25 c12 14 34 51 51 82 l29
58 0 -58 c0 -31 -6 -70 -14 -86 -17 -36 -18 -58 -2 -74 10 -10 10 -17 0 -32
-14 -23 -16 -66 -3 -74 10 -7 9 -31 -2 -42 -11 -12 -8 -40 8 -70 16 -31 20
-91 7 -110 -4 -6 -29 -14 -55 -17 -114 -16 -247 -117 -300 -228 -57 -122 -57
-250 2 -373 149 -314 608 -312 758 3 97 207 14 453 -189 560 -32 16 -79 33
-105 37 -26 4 -53 13 -60 20 -14 14 -18 84 -5 84 4 0 13 14 19 31 10 25 9 38
-1 63 -11 27 -11 35 2 54 13 19 13 25 0 44 -14 20 -14 26 0 55 14 29 13 34 -7
68 -11 20 -21 46 -21 58 0 14 11 0 29 -38 38 -79 69 -117 36 -45 -32 70 -61
198 -48 211 6 6 23 -12 47 -51 20 -33 47 -65 59 -71 21 -10 21 -10 3 5 -11 9
-17 16 -13 16 4 0 -2 18 -13 40 -11 21 -21 47 -23 57 -2 10 -8 28 -15 40 -29
52 -9 42 23 -12 20 -33 56 -82 81 -110 l45 -50 -45 66 c-40 59 -92 159 -82
159 3 0 18 -22 35 -50 42 -68 48 -63 10 7 l-31 58 32 -35 32 -35 -22 33 c-25
37 -80 148 -80 160 0 4 5 -1 11 -12 9 -15 13 -16 20 -5 11 18 11 56 0 63 -24
15 -41 -7 -41 -55 0 -27 -4 -49 -10 -49 -5 0 -10 25 -10 55 0 38 -4 55 -13 55
-24 0 -37 -24 -37 -67 0 -24 -4 -43 -10 -43 -6 0 -10 26 -10 59 0 58 0 59 32
65 17 3 36 2 41 -3 7 -7 17 -7 28 -1 25 14 47 3 65 -32 9 -16 18 -28 21 -25 3
3 0 14 -5 23 -8 14 -6 21 6 30 14 10 11 18 -23 64 -21 29 -39 60 -40 69 0 9
-5 22 -9 29 -16 27 2 22 19 -5 26 -39 104 -121 140 -146 29 -21 29 -20 -6 19
-50 57 -91 118 -133 201 -36 73 -51 128 -16 62 26 -49 135 -149 206 -189 33
-18 61 -35 64 -37 3 -3 -6 -14 -20 -25 l-25 -20 29 17 c23 14 34 15 55 6 23
-10 24 -10 9 2 -16 13 -13 17 40 50 31 19 68 47 81 61 14 14 29 26 35 26 6 0
-16 -28 -49 -62 -59 -62 -46 -56 29 12 l39 35 -19 -34 c-10 -18 -38 -53 -61
-78 -24 -24 -35 -39 -25 -34 25 14 124 110 155 151 15 19 27 30 27 25 0 -6
-31 -52 -69 -102 -52 -69 -65 -93 -54 -97 20 -8 20 -8 27 10 4 9 2 13 -5 8 -7
-4 -10 -1 -7 7 3 8 17 14 31 14 l27 1 -30 -53 c-17 -29 -29 -53 -27 -53 2 0
25 29 51 65 26 36 49 65 52 65 6 0 -40 -119 -66 -171 -27 -53 -15 -43 34 31
20 30 36 52 36 49 0 -12 -43 -104 -62 -134 -18 -27 -17 -26 12 5 29 32 31 33
25 10 -4 -14 -18 -50 -31 -80 -34 -79 0 -32 47 64 48 99 52 82 5 -20 -19 -41
-33 -74 -31 -74 4 0 54 85 76 129 l17 35 0 -67 c0 -38 -4 -67 -9 -67 -6 0 -8
-4 -4 -9 3 -5 1 -12 -5 -16 -12 -8 -13 -62 -1 -69 10 -7 9 -31 -2 -42 -11 -12
-8 -59 5 -72 9 -9 9 -15 0 -24 -15 -15 -16 -64 -2 -73 6 -4 8 -11 5 -16 -4 -5
-1 -9 4 -9 7 0 11 -24 11 -60 0 -47 -3 -60 -15 -60 -18 0 -18 -4 -4 -68 16
-65 4 -118 -32 -155 -17 -16 -23 -27 -14 -23 18 6 13 -5 -14 -39 -16 -19 -16
-19 14 -1 l30 17 -33 -31 c-20 -18 -41 -54 -52 -86 -19 -53 -19 -54 0 -44 32
17 33 11 0 -16 -41 -35 -57 -69 -86 -181 -32 -128 -32 -131 13 -96 66 51 70
47 10 -8 -56 -53 -58 -56 -77 -144 -11 -49 -20 -99 -20 -109 0 -18 2 -17 28 6
15 14 41 34 57 44 17 10 0 -11 -38 -46 l-67 -65 -15 -89 c-22 -130 -20 -248 4
-277 l20 -24 58 30 c31 16 85 56 119 87 l62 58 12 -63 c14 -77 48 -141 76
-145 47 -7 204 212 204 284 0 12 -16 43 -35 68 -45 60 -45 67 2 16 20 -23 40
-37 44 -33 4 4 10 42 14 84 l7 76 -53 48 c-54 48 -51 52 8 9 17 -13 34 -24 37
-24 22 0 10 232 -15 298 -6 15 -26 46 -45 69 -42 51 -34 57 13 11 18 -18 33
-27 33 -22 0 19 -42 179 -53 199 -5 11 -26 40 -46 65 l-35 45 32 -29 c41 -38
41 -24 1 22 -21 24 -27 37 -19 42 8 5 2 15 -19 29 -45 32 -54 56 -52 138 1 60
-1 73 -14 73 -12 0 -15 13 -15 60 0 33 4 60 10 60 5 0 9 3 8 8 -1 4 4 17 11
30 10 20 10 27 -4 48 -14 22 -14 26 1 49 14 22 15 28 2 48 -16 26 -16 35 0 64
10 18 10 28 0 45 -7 13 -11 26 -10 31 1 4 -3 7 -8 7 -6 0 -10 10 -10 23 0 15
11 2 35 -42 45 -84 63 -102 31 -31 -44 97 -71 230 -46 230 6 0 10 -4 10 -8 0
-15 80 -132 90 -132 13 0 13 7 -1 31 -5 11 -13 18 -17 15 -4 -2 -8 3 -9 12 0
9 -10 42 -22 72 -11 30 -21 57 -21 59 0 2 22 -27 49 -65 27 -38 61 -82 76 -99
23 -26 23 -24 -5 17 -33 52 -80 141 -80 154 0 5 16 -15 35 -44 41 -60 57 -71
22 -15 -47 74 -51 90 -12 48 34 -38 35 -38 12 -5 -35 49 -90 160 -83 167 3 3
8 -2 12 -11 3 -9 12 -16 19 -16 7 0 38 -28 68 -63 31 -35 63 -64 71 -64 10 0
-3 20 -33 52 -27 28 -61 76 -75 106 -24 50 -25 52 -4 25 13 -16 33 -41 46 -55
l23 -26 -24 40 c-13 22 -27 46 -31 53 -4 7 23 -10 59 -38 37 -28 85 -59 108
-70 34 -17 37 -17 17 -3 -97 70 -226 213 -216 239 3 8 0 13 -6 11 -7 -1 -13 8
-14 19 0 12 -4 28 -9 35 -4 8 5 -2 21 -21 36 -46 141 -147 179 -172 22 -15 19
-10 -11 19 -57 53 -106 117 -147 193 -62 113 -89 191 -33 96 34 -57 115 -129
213 -188 109 -66 133 -71 41 -9 -89 60 -162 136 -230 239 -57 88 -68 123 -68
219 0 39 -7 103 -15 141 -14 70 -16 112 -4 112 15 0 17 46 3 67 -13 21 -13 26
2 48 14 22 15 28 2 48 -16 26 -16 35 0 65 11 20 10 28 -7 56 -22 36 -28 96
-10 96 6 0 9 6 6 14 -4 9 15 30 51 57 31 24 85 69 119 101 34 32 67 58 73 58
5 0 9 4 8 9 -2 5 20 36 48 68 28 32 51 60 50 63 -1 10 82 126 100 140 20 16
-5 -23 -60 -95 l-31 -40 32 23 c17 12 50 46 74 75 61 74 65 77 38 29 -38 -70
-121 -164 -189 -215 -59 -45 -70 -59 -29 -37 39 21 17 -1 -36 -36 -30 -20 -55
-39 -55 -41 0 -12 167 94 215 136 37 33 18 5 -39 -59 l-41 -44 60 49 c57 48
59 49 36 15 -13 -19 -43 -55 -65 -79 l-41 -45 41 32 c23 17 70 62 105 99 67
71 60 54 -23 -59 -56 -76 -131 -147 -195 -185 -55 -32 -56 -40 0 -12 68 35
176 110 203 141 37 45 29 19 -16 -50 -22 -34 -38 -62 -35 -62 2 0 29 34 59 76
31 42 56 72 56 65 0 -17 -49 -143 -66 -168 -30 -46 -4 -21 35 34 23 31 41 52
41 47 0 -6 -7 -19 -15 -30 -16 -21 -20 -58 -5 -49 12 7 -10 -56 -44 -126 -22
-43 -23 -49 -7 -29 11 14 39 61 61 105 22 44 40 73 40 65 0 -9 -18 -51 -40
-95 -45 -90 -20 -64 32 32 40 77 55 82 28 10 -25 -65 -25 -72 0 -27 l19 35 1
-102 c0 -66 -4 -103 -11 -103 -5 0 -8 -4 -4 -9 3 -5 1 -12 -5 -16 -14 -9 -13
-58 2 -73 10 -10 10 -17 0 -32 -14 -23 -16 -56 -3 -64 10 -7 9 -31 -2 -42 -11
-11 -8 -62 3 -69 6 -4 8 -11 5 -16 -4 -5 -1 -9 4 -9 6 0 11 -21 11 -50 0 -44
-2 -50 -21 -50 -18 0 -20 -4 -14 -27 26 -96 21 -138 -23 -185 -16 -18 -21 -28
-12 -28 9 0 5 -9 -10 -25 -13 -14 -18 -25 -12 -25 6 0 14 5 17 10 3 6 12 10
18 10 7 0 -3 -13 -20 -28 -18 -15 -39 -47 -48 -71 -20 -58 -19 -64 8 -50 15 8
8 -3 -19 -33 -23 -25 -49 -67 -58 -94 -17 -52 -47 -186 -42 -191 1 -1 22 11
47 29 l44 31 -52 -54 c-50 -51 -54 -60 -73 -144 -11 -50 -20 -96 -20 -103 0
-8 21 1 53 24 l52 37 -62 -64 -62 -64 -16 -95 c-28 -174 -17 -280 29 -280 33
0 126 58 182 115 l52 51 21 -84 c34 -139 70 -156 146 -69 52 59 98 134 120
197 l15 43 -41 56 -42 56 41 -39 c23 -22 44 -38 46 -35 3 2 8 39 12 82 l7 77
-54 52 -54 51 52 -36 c58 -41 63 -38 63 42 0 66 -20 212 -33 236 -5 11 -26 40
-46 65 -34 42 -25 41 27 -4 13 -12 22 -15 22 -7 0 35 -46 186 -64 211 -11 16
-32 44 -45 62 l-24 33 31 -29 c41 -38 41 -24 1 22 -18 20 -27 38 -21 40 6 2
-7 21 -29 42 l-41 39 3 77 c3 55 0 79 -9 82 -14 4 -17 92 -2 92 6 0 9 3 8 8
-1 4 4 17 11 30 10 20 10 27 -3 47 -14 22 -14 26 1 53 16 28 16 31 0 56 -16
24 -16 28 -2 50 14 21 14 28 4 48 -7 13 -12 26 -11 31 1 4 -2 7 -8 7 -6 0 -10
32 -10 77 l0 77 26 -49 c42 -84 69 -109 34 -35 -63 138 -84 304 -25 194 11
-21 32 -50 47 -66 15 -16 27 -31 27 -33 1 -3 3 -5 6 -5 3 0 7 0 10 0 3 0 -6
17 -19 38 -13 21 -31 60 -40 86 -9 27 -21 57 -27 67 -21 40 0 16 34 -38 20
-32 54 -78 77 -103 l41 -45 -34 50 c-35 51 -87 148 -87 162 0 4 20 -23 45 -60
51 -76 70 -92 25 -20 -33 52 -39 72 -13 52 14 -12 14 -10 -1 14 -21 31 -28 35
-20 10 5 -15 4 -15 -4 -3 -6 8 -9 17 -6 22 3 4 -7 30 -21 57 -24 48 -36 96
-14 59 5 -10 15 -18 22 -19 7 0 41 -34 76 -75 35 -40 67 -71 72 -68 5 3 -11
29 -37 57 -25 28 -59 78 -76 112 -33 67 -29 65 26 -12 47 -66 56 -69 16 -6
-17 26 -30 51 -30 56 0 4 21 -9 48 -31 26 -22 70 -52 97 -67 41 -22 44 -23 20
-4 -83 62 -210 210 -219 255 -3 10 -8 28 -12 39 -4 12 2 9 16 -10 38 -49 102
-114 155 -158 l50 -41 -56 60 c-64 68 -120 151 -155 231 -13 29 -24 56 -24 59
0 4 19 -20 43 -52 45 -61 123 -124 227 -182 72 -41 79 -36 12 7 -106 68 -273
272 -293 358 -5 21 -9 70 -9 108 0 39 -7 101 -15 140 -8 38 -15 91 -15 117 0
27 -4 48 -10 48 -5 0 -10 22 -10 48 0 79 -29 230 -66 340 -158 479 -571 840
-1059 927 -110 20 -317 27 -405 15z m144 -226 c3 -9 6 -20 6 -24 0 -27 -390
-206 -605 -277 -172 -58 -174 -58 -184 -31 -11 29 13 56 118 132 94 67 209
126 316 161 155 50 337 71 349 39z m239 -5 c190 -38 358 -116 499 -232 41 -33
73 -67 74 -78 2 -40 -19 -40 -137 -3 -168 53 -274 96 -471 192 -149 72 -178
89 -178 107 0 12 3 25 7 28 12 13 106 7 206 -14z m727 -476 c98 -139 166 -306
195 -477 25 -148 20 -176 -30 -176 -16 0 -156 280 -210 420 -61 157 -116 331
-110 351 16 51 60 18 155 -118z m-1752 111 c2 -12 -18 -84 -43 -159 -89 -263
-245 -598 -281 -603 -40 -5 -44 8 -33 107 26 233 116 449 261 623 37 44 55 58
71 56 14 -2 23 -11 25 -24z m1150 -104 c-29 -33 -71 -97 -93 -142 -41 -84 -61
-102 -90 -78 -37 31 -6 126 62 192 36 35 133 88 161 88 7 0 -11 -27 -40 -60z
m-309 -37 c-28 -32 -68 -110 -107 -205 -12 -30 -48 -38 -70 -16 -32 32 4 137
64 190 37 32 139 88 142 78 2 -6 -11 -27 -29 -47z m456 -5 c27 -65 31 -178 10
-234 -20 -53 -50 -84 -82 -84 -39 0 -45 30 -17 91 34 73 54 152 54 216 0 29 4
53 9 53 5 0 17 -19 26 -42z m-772 -91 c-42 -48 -68 -94 -94 -162 -25 -70 -36
-85 -57 -85 -23 0 -52 30 -52 54 1 37 37 103 80 145 39 38 138 96 148 86 3 -2
-9 -19 -25 -38z m470 -138 c54 -24 61 -106 17 -191 -61 -119 -156 -159 -211
-90 -18 24 -21 37 -17 102 5 89 29 145 72 171 35 21 102 25 139 8z m-320 -28
c36 -14 57 -39 57 -69 0 -33 -36 -149 -55 -179 -30 -45 -125 -37 -165 14 -27
34 -25 86 4 149 38 82 91 110 159 85z m776 -100 c18 -55 14 -171 -8 -211 -23
-44 -64 -61 -88 -37 -15 15 -14 21 17 88 18 39 38 102 44 140 11 72 16 75 35
20z m-210 -27 c27 -23 31 -32 31 -77 -1 -111 -90 -227 -174 -227 -14 0 -40 13
-58 29 -41 37 -43 83 -5 138 15 21 34 60 43 86 9 26 26 54 37 62 34 24 91 19
126 -11z m-840 -3 c46 -46 33 -191 -22 -237 -65 -55 -157 0 -157 94 0 109 118
204 179 143z m471 -191 c63 -32 138 -107 170 -170 16 -30 53 -93 84 -140 31
-47 61 -103 67 -125 25 -92 -14 -220 -87 -284 -86 -76 -193 -83 -358 -27 -96
33 -120 38 -254 44 -136 7 -152 10 -195 35 -71 42 -100 99 -105 207 -5 104 9
179 49 260 35 68 71 95 185 134 38 13 102 38 142 55 40 18 92 36 115 40 57 9
135 -2 187 -29z m-1102 -217 c43 -87 93 -196 111 -243 47 -117 121 -339 121
-361 0 -20 -38 -45 -49 -32 -193 227 -284 428 -311 684 -10 98 -7 109 33 109
13 0 38 -41 95 -157z m1602 137 c11 -11 20 -33 20 -50 0 -39 -53 -157 -87
-192 -57 -60 -153 -22 -153 59 0 52 39 131 84 171 45 39 104 44 136 12z m574
14 c20 -8 21 -51 1 -170 -34 -210 -112 -383 -251 -556 -43 -53 -58 -65 -75
-61 -11 3 -23 12 -26 19 -13 35 130 412 239 632 68 137 78 149 112 136z
m-1771 -825 c254 -85 617 -254 617 -289 0 -33 -21 -39 -107 -30 -246 25 -472
124 -657 288 -31 27 -35 35 -26 52 15 28 33 26 173 -21z m1423 14 c3 -17 -12
-35 -64 -77 -182 -147 -408 -237 -649 -260 -61 -6 -63 -5 -69 21 -8 32 0 39
116 98 211 106 577 246 634 242 22 -1 30 -8 32 -24z m-1224 -486 c97 -31 199
-52 306 -62 52 -5 72 -11 72 -21 0 -8 7 -14 15 -14 10 0 15 -11 15 -35 0 -19
-5 -35 -11 -35 -5 0 -8 -4 -4 -9 3 -5 1 -12 -5 -16 -14 -9 -13 -51 2 -75 10
-15 10 -22 0 -32 -6 -6 -12 -20 -12 -30 0 -10 6 -27 12 -38 10 -15 10 -22 0
-32 -14 -14 -16 -64 -3 -72 10 -7 9 -36 -8 -161 -7 -49 -9 -116 -6 -147 6 -52
4 -63 -20 -105 -49 -84 -124 -180 -191 -243 -91 -85 -104 -90 -149 -56 -19 15
-34 30 -32 34 1 4 -28 36 -65 71 -37 34 -88 94 -113 131 -50 78 -59 98 -18 48
45 -56 96 -108 148 -151 49 -41 49 -41 -15 29 -36 40 -73 87 -84 105 -17 30
-12 28 40 -21 96 -91 113 -100 42 -23 -37 40 -75 87 -84 105 l-16 33 38 -37
c40 -38 209 -148 227 -148 6 0 -11 14 -37 30 -98 62 -211 186 -274 300 -28 52
-30 63 -35 190 -3 74 -11 152 -17 172 -9 31 -8 43 5 69 14 26 15 36 4 60 -9
22 -9 36 -1 53 11 25 6 66 -9 66 -4 0 -2 15 6 34 11 27 12 40 2 65 -6 17 -15
31 -19 31 -4 0 -8 9 -8 20 0 11 7 20 15 20 8 0 15 4 15 8 0 4 42 -13 93 -38
52 -25 132 -58 179 -73z m1139 103 c5 0 9 -9 9 -20 0 -11 -5 -20 -11 -20 -5 0
-8 -4 -4 -9 3 -5 1 -12 -5 -16 -11 -7 -14 -58 -3 -69 11 -11 12 -35 2 -42 -13
-8 -11 -58 3 -72 9 -9 9 -15 0 -24 -14 -14 -16 -64 -3 -72 10 -7 9 -32 -8
-131 -7 -38 -11 -109 -10 -156 3 -81 1 -89 -31 -145 -70 -125 -188 -252 -285
-309 -25 -15 -45 -29 -45 -32 0 -15 191 107 244 156 l38 36 -16 -33 c-9 -18
-47 -65 -84 -105 -73 -79 -53 -67 47 28 l64 60 -34 -50 c-18 -27 -58 -77 -88
-110 l-56 -59 50 41 c52 42 123 115 164 168 l23 30 -23 -40 c-57 -101 -148
-201 -237 -260 -52 -34 -55 -44 -4 -15 l37 22 -34 -31 -34 -30 -44 31 c-68 49
-156 146 -216 239 l-54 84 -7 110 c-3 61 -13 137 -21 170 -15 67 -15 79 3 113
10 17 10 27 0 45 -15 28 -19 47 -8 47 18 0 21 42 6 65 -15 23 -15 27 -1 48 12
19 13 30 4 55 -6 18 -15 32 -20 32 -5 0 -9 16 -9 35 0 24 5 35 15 35 8 0 15 7
15 15 0 10 10 15 28 15 55 0 229 31 319 56 50 14 135 48 190 74 54 27 104 46
111 44 8 -2 18 -4 23 -4z m-667 -2329 c3 -5 15 -7 25 -4 11 3 46 -7 78 -21 44
-21 54 -29 43 -36 -12 -8 -9 -10 11 -10 44 0 122 -107 143 -193 6 -26 5 -27
-16 -17 l-23 11 23 -17 c29 -21 32 -99 5 -120 -17 -13 -17 -14 0 -8 9 3 17 4
17 1 0 -13 -33 -95 -47 -116 -16 -24 -17 -24 -25 -6 -7 16 -7 15 -3 -6 9 -48
-82 -120 -194 -154 -20 -6 -23 -5 -17 11 6 18 5 18 -8 2 -17 -23 -68 -33 -95
-19 -17 9 -61 77 -61 94 0 3 13 10 30 17 16 7 35 18 41 26 6 8 -9 2 -35 -12
-30 -17 -46 -21 -46 -13 0 9 -4 7 -12 -3 -7 -9 -29 -22 -48 -27 -31 -10 -32
-10 -5 -7 17 3 37 7 46 11 12 5 23 -6 42 -39 14 -25 22 -46 17 -46 -33 0 -124
47 -168 88 l-53 47 18 53 c12 37 21 51 31 47 21 -8 69 -16 52 -9 -24 11 -64
25 -70 26 -3 0 -14 4 -25 10 -20 9 -20 9 -1 -6 18 -15 19 -19 5 -63 l-15 -48
-24 45 c-24 47 -42 100 -34 100 3 0 15 -5 27 -11 21 -10 21 -10 3 5 -11 9 -24
16 -29 16 -17 0 0 145 22 194 31 71 88 136 120 136 18 0 22 3 12 9 -9 6 2 16
42 35 66 31 92 34 83 9 -4 -12 0 -10 10 5 13 17 26 22 60 22 23 0 45 -4 48 -9z"/>
<path d="M1787 1064 l43 -25 -23 -32 c-12 -18 -24 -33 -27 -35 -3 -1 -4 -18
-2 -37 4 -33 3 -35 -27 -35 -23 0 -34 6 -42 23 -9 21 -9 21 -5 -3 4 -20 -2
-29 -29 -47 -37 -24 -40 -22 -70 36 -14 28 -15 35 -3 43 10 7 8 8 -5 4 -10 -3
-20 -6 -22 -6 -6 0 36 -72 53 -92 8 -10 11 -18 6 -18 -9 0 75 -53 89 -56 4 -1
18 -2 32 -3 21 -1 25 -6 25 -30 0 -16 -5 -32 -10 -34 -6 -3 -5 -4 2 -3 7 1 14
19 16 39 2 23 8 37 17 37 24 0 28 -20 8 -43 -18 -22 -18 -22 3 -5 19 17 21 17
39 0 19 -17 19 -17 1 5 -24 29 -13 44 32 39 20 -2 29 -1 20 1 -24 6 -24 43 0
43 19 0 62 -72 62 -105 0 -15 -6 -17 -37 -12 -20 4 -39 11 -43 16 -3 6 -11 -4
-18 -22 -9 -26 -9 -29 2 -15 10 14 24 16 72 12 32 -3 54 -2 49 3 -6 4 -16 25
-22 45 -11 36 -10 38 24 58 19 11 39 18 44 15 5 -4 6 1 3 9 -3 8 4 29 15 45
12 16 21 33 21 37 0 5 -11 -8 -25 -28 l-25 -37 -33 22 c-19 12 -33 29 -32 37
1 8 0 9 -2 3 -3 -8 -22 -13 -48 -13 -35 0 -43 -3 -39 -15 10 -25 -12 -17 -24
10 -10 22 -8 27 21 49 18 14 28 26 23 26 -6 0 -20 -9 -32 -21 -21 -20 -23 -20
-48 -4 -22 15 -24 20 -14 39 23 44 29 48 52 29 21 -18 21 -18 3 3 -9 11 -15
24 -12 27 3 4 2 5 -1 2 -4 -2 -23 7 -43 20 -19 14 -40 25 -46 25 -5 0 9 -12
32 -26z"/>
</g>
</svg>
